<?xml version="1.0" encoding="UTF-8" standalone="no"?>
<!-- Created with Inkscape (http://www.inkscape.org/) -->

<svg
   xmlns:dc="http://purl.org/dc/elements/1.1/"
   xmlns:cc="http://creativecommons.org/ns#"
   xmlns:rdf="http://www.w3.org/1999/02/22-rdf-syntax-ns#"
   xmlns:svg="http://www.w3.org/2000/svg"
   xmlns="http://www.w3.org/2000/svg"
   xmlns:sodipodi="http://sodipodi.sourceforge.net/DTD/sodipodi-0.dtd"
   xmlns:inkscape="http://www.inkscape.org/namespaces/inkscape"
   width="100px"
   height="100px"
   viewBox="0 0 100 100"
   version="1.1"
   id="SVGRoot"
   inkscape:version="0.92.3 (2405546, 2018-03-11)"
   sodipodi:docname="newmatelogo1circle.svg"
   inkscape:export-filename="/home/scow/bitmap.png"
   inkscape:export-xdpi="168.33467"
   inkscape:export-ydpi="168.33467">
  <sodipodi:namedview
     id="base"
     pagecolor="#ffffff"
     bordercolor="#666666"
     borderopacity="1.0"
     inkscape:pageopacity="0.0"
     inkscape:pageshadow="2"
     inkscape:zoom="4.4884448"
     inkscape:cx="41.272692"
     inkscape:cy="64.381162"
     inkscape:document-units="px"
     inkscape:current-layer="layer1"
     showgrid="false"
     inkscape:window-width="1280"
     inkscape:window-height="949"
     inkscape:window-x="0"
     inkscape:window-y="25"
     inkscape:window-maximized="1" />
  <defs
     id="defs1381" />
  <metadata
     id="metadata1384">
    <rdf:RDF>
      <cc:Work
         rdf:about="">
        <dc:format>image/svg+xml</dc:format>
        <dc:type
           rdf:resource="http://purl.org/dc/dcmitype/StillImage" />
        <dc:title></dc:title>
      </cc:Work>
    </rdf:RDF>
  </metadata>
  <g
     id="layer1"
     inkscape:groupmode="layer"
     inkscape:label="Layer 1">
    <path
       sodipodi:type="star"
       style="opacity:1;fill:#87a556;fill-opacity:1;fill-rule:nonzero;stroke:#9ab271;stroke-width:1.75239086;stroke-linejoin:miter;stroke-miterlimit:4;stroke-dasharray:none;stroke-opacity:1"
       id="path4553"
       sodipodi:sides="3"
       sodipodi:cx="70.559151"
       sodipodi:cy="138.77644"
       sodipodi:r1="25.663443"
       sodipodi:r2="12.831721"
       sodipodi:arg1="0"
       sodipodi:arg2="1.0471976"
       inkscape:flatsided="false"
       inkscape:rounded="0"
       inkscape:randomized="0"
       d="m 96.222593,138.77644 -19.247582,11.1126 -19.247582,11.1126 0,-22.2252 0,-22.22519 19.247583,11.1126 z"
       inkscape:transform-center-x="-1.8310039"
       transform="matrix(1.0786301,0,0,1.1183644,-56.61518,-105.57111)"
       inkscape:transform-center-y="1.3273205e-05" />
    <path
       sodipodi:type="star"
       style="opacity:1;fill:none;fill-opacity:1;fill-rule:nonzero;stroke:#5a6943;stroke-width:1.56744456;stroke-linejoin:miter;stroke-miterlimit:4;stroke-dasharray:none;stroke-opacity:1"
       id="path4553-0"
       sodipodi:sides="3"
       sodipodi:cx="70.559151"
       sodipodi:cy="138.77644"
       sodipodi:r1="25.663443"
       sodipodi:r2="12.831721"
       sodipodi:arg1="0"
       sodipodi:arg2="1.0471976"
       inkscape:flatsided="false"
       inkscape:rounded="0"
       inkscape:randomized="0"
       d="m 96.222593,138.77644 -19.247582,11.1126 -19.247582,11.1126 0,-22.2252 0,-22.22519 19.247583,11.1126 z"
       inkscape:transform-center-x="-2.0450989"
       transform="matrix(1.2047498,0,0,1.2515167,-65.238733,-124.04953)"
       inkscape:transform-center-y="9.9117222e-06" />
    <path
       sodipodi:open="true"
       transform="matrix(-0.69085643,-0.72299198,0.72221791,-0.6916656,0,0)"
       d="M -41.25354,-0.84058705 A 30.786386,30.784861 0 0 1 -57.80598,30.701451 30.786386,30.784861 0 0 1 -93.047962,25.507025 30.786386,30.784861 0 0 1 -99.795093,-9.4692104 30.786386,30.784861 0 0 1 -69.013848,-27.398661"
       sodipodi:end="4.8018769"
       sodipodi:start="6.1494879"
       sodipodi:ry="30.784861"
       sodipodi:rx="30.786386"
       sodipodi:cy="3.2630181"
       sodipodi:cx="-71.765182"
       sodipodi:type="arc"
       id="path849"
       style="opacity:1;fill:none;fill-opacity:1;fill-rule:nonzero;stroke:#5a6943;stroke-width:1.9246825;stroke-linejoin:miter;stroke-miterlimit:4;stroke-dasharray:none;stroke-opacity:1" />
    <path
       style="opacity:1;fill:none;fill-opacity:1;fill-rule:nonzero;stroke:#9ab271;stroke-width:1.9246825;stroke-linejoin:miter;stroke-miterlimit:4;stroke-dasharray:none;stroke-opacity:1"
       id="path851"
       sodipodi:type="arc"
       sodipodi:cx="-71.877029"
       sodipodi:cy="3.3830483"
       sodipodi:rx="29.088036"
       sodipodi:ry="29.086472"
       sodipodi:start="6.1393763"
       sodipodi:end="4.8128121"
       d="M -43.089261,-0.78544543 A 29.088036,29.086472 0 0 1 -58.562312,29.243446 29.088036,29.086472 0 0 1 -91.994384,24.391579 29.088036,29.086472 0 0 1 -98.291971,-8.7968003 29.088036,29.086472 0 0 1 -68.960825,-25.556881"
       transform="matrix(-0.69082348,-0.72302346,0.72218638,-0.69169852,0,0)"
       sodipodi:open="true" />
    <path
       sodipodi:open="true"
       transform="matrix(-0.69078258,-0.72306254,0.72214725,-0.69173937,0,0)"
       d="M -44.831065,0.26797712 A 27.352064,27.35046 0 0 1 -59.886959,28.032552 27.352064,27.35046 0 0 1 -91.083369,23.090576 27.352064,27.35046 0 0 1 -96.819739,-7.9678034 27.352064,27.35046 0 0 1 -69.446594,-23.726095"
       sodipodi:end="4.8055403"
       sodipodi:start="6.1645247"
       sodipodi:ry="27.35046"
       sodipodi:rx="27.352064"
       sodipodi:cy="3.5057886"
       sodipodi:cx="-71.990791"
       sodipodi:type="arc"
       id="path853"
       style="opacity:1;fill:none;fill-opacity:1;fill-rule:nonzero;stroke:#87a556;stroke-width:1.9246825;stroke-linejoin:miter;stroke-miterlimit:4;stroke-dasharray:none;stroke-opacity:1" />
    <path
       style="opacity:1;fill:none;fill-opacity:1;fill-rule:nonzero;stroke:#5a6943;stroke-width:1.9246825;stroke-linejoin:miter;stroke-miterlimit:4;stroke-dasharray:none;stroke-opacity:1"
       id="path855"
       sodipodi:type="arc"
       sodipodi:cx="-72.102943"
       sodipodi:cy="3.6275585"
       sodipodi:rx="25.616241"
       sodipodi:ry="25.614588"
       sodipodi:start="6.1416292"
       sodipodi:end="4.800394"
       d="M -46.742924,0.01375439 A 25.616241,25.614588 0 0 1 -60.345189,26.384539 25.616241,25.614588 0 0 1 -89.72493,22.218222 25.616241,25.614588 0 0 1 -95.458108,-6.8945049 25.616241,25.614588 0 0 1 -69.851494,-21.887902"
       transform="matrix(-0.69073461,-0.72310836,0.72210134,-0.69178729,0,0)"
       sodipodi:open="true" />
    <path
       inkscape:connector-curvature="0"
       id="path859"
       d="m 26.972387,69.109284 6.377409,-3.782963"
       style="fill:none;fill-rule:evenodd;stroke:#5a6943;stroke-width:0.96234089;stroke-linecap:butt;stroke-linejoin:miter;stroke-miterlimit:4;stroke-dasharray:none;stroke-opacity:1" />
    <path
       style="fill:none;fill-rule:evenodd;stroke:#5a6943;stroke-width:0.96234089;stroke-linecap:butt;stroke-linejoin:miter;stroke-miterlimit:4;stroke-dasharray:none;stroke-opacity:1"
       d="m 27.965581,69.573052 5.698856,-3.313894"
       id="path861"
       inkscape:connector-curvature="0" />
    <path
       inkscape:connector-curvature="0"
       id="path875"
       d="m 27.099735,29.911148 6.299709,4.12129"
       style="fill:none;fill-rule:evenodd;stroke:#5a6943;stroke-width:0.96234089;stroke-linecap:butt;stroke-linejoin:miter;stroke-miterlimit:4;stroke-dasharray:none;stroke-opacity:1"
       sodipodi:nodetypes="cc" />
    <path
       style="fill:none;fill-rule:evenodd;stroke:#5a6943;stroke-width:0.96234077;stroke-linecap:butt;stroke-linejoin:miter;stroke-miterlimit:4;stroke-dasharray:none;stroke-opacity:1"
       d="m 27.693086,29.473969 6.140431,3.621075"
       id="path877"
       inkscape:connector-curvature="0" />
  </g>
</svg>
